# xmcd CD database file
#
# Track frame offsets:
#	150
#	13332
#	25632
#	36596
#	49167
#	63059
#	72722
#	81057
#	91741
#	104746
#	118760
#	133955
#	145247
#	159542
#	179206
#
# Disc length: 2616 seconds
#
# Revision: 1
# Processed by: cddbd v1.5.2PL0 Copyright (c) Steve Scherf et al.
# Submitted via: CDex 1.51
#
DISCID=e00a360f
DTITLE=Various Artist - Dang Me (Time Life) Disc 2
DYEAR=1900
DGENRE=Country
TTITLE0=Smoke Smoke Smoke (That Cigarette)
TTITLE1=Temptation (Tim_Tayshun)
TTITLE2=Thats my Pa
TTITLE3=White Lightning
TTITLE4=Ode to the Little Brown Shack Out Back
TTITLE5=Dirty Old Egg-Sucking Dog
TTITLE6=Dang Me
TTITLE7=When Youre Hot Youre Hot
TTITLE8=I Like Beer
TTITLE9=Spiders and Snakes
TTITLE10=Mama Shes Lazy
TTITLE11=Im a Nut
TTITLE12=Country Music is here to Stay
TTITLE13=Its Hard to Be Humble
TTITLE14=Convoy
EXTD=
EXTT0=
EXTT1=
EXTT2=
EXTT3=
EXTT4=
EXTT5=
EXTT6=
EXTT7=
EXTT8=
EXTT9=
EXTT10=
EXTT11=
EXTT12=
EXTT13=
EXTT14=
PLAYORDER=
